<?xml version="1.0" standalone="no"?>
<!DOCTYPE svg PUBLIC "-//W3C//DTD SVG 20010904//EN"
 "http://www.w3.org/TR/2001/REC-SVG-20010904/DTD/svg10.dtd">
<svg version="1.0" xmlns="http://www.w3.org/2000/svg"
 width="1024.000000pt" height="1024.000000pt" viewBox="0 0 1024.000000 1024.000000"
 preserveAspectRatio="xMidYMid meet">
<metadata>
Created by potrace 1.14, written by Peter Selinger 2001-2017
</metadata>
<g transform="translate(0.000000,1024.000000) scale(0.100000,-0.100000)"
fill="#000000" stroke="none">
<path d="M0 5120 l0 -5120 5120 0 5120 0 0 5120 0 5120 -5120 0 -5120 0 0
-5120z m5320 1395 c149 -21 263 -55 397 -120 410 -196 694 -557 783 -997 99
-483 -58 -971 -420 -1311 -182 -170 -395 -282 -665 -349 -122 -30 -434 -33
-565 -5 -273 58 -504 177 -693 357 -245 233 -390 514 -438 848 -15 107 -6 371
16 472 111 508 494 921 990 1065 185 54 394 68 595 40z m4080 -3645 l0 -2030
-2032 2 c-1118 1 -2010 3 -1983 5 295 18 673 85 955 169 324 96 703 265 1004
447 l89 54 -2 86 -2 87 85 0 c85 0 86 0 86 -25 0 -14 3 -25 6 -25 12 0 193
141 304 237 96 83 116 104 118 131 3 29 6 32 37 32 30 0 45 13 149 125 113
121 116 126 116 170 l0 45 40 0 c36 0 43 5 93 68 113 143 167 222 167 247 0
17 5 25 18 25 37 0 278 420 396 691 189 435 316 947 342 1377 4 61 9 112 11
112 1 0 3 -913 3 -2030z m-2100 -235 l0 -86 -82 3 -83 3 -3 83 -3 82 86 0 85
0 0 -85z m300 0 l0 -86 -82 3 -83 3 -3 83 -3 82 86 0 85 0 0 -85z m300 0 l0
-85 -85 0 -85 0 0 85 0 85 85 0 85 0 0 -85z m300 0 l0 -85 -85 0 -85 0 0 85 0
85 85 0 85 0 0 -85z m300 0 l0 -85 -85 0 -85 0 0 85 0 85 85 0 85 0 0 -85z
m-1200 -340 l0 -85 -85 0 -85 0 0 85 0 85 85 0 85 0 0 -85z m300 0 l0 -85 -85
0 -85 0 0 85 0 85 85 0 85 0 0 -85z m300 0 l0 -85 -85 0 -85 0 0 85 0 85 85 0
85 0 0 -85z m300 0 l0 -85 -85 0 -85 0 0 85 0 85 85 0 85 0 0 -85z m-900 -340
l0 -85 -85 0 -85 0 0 78 c0 43 3 82 7 85 3 4 42 7 85 7 l78 0 0 -85z m300 0
l0 -85 -85 0 -85 0 0 78 c0 43 3 82 7 85 3 4 42 7 85 7 l78 0 0 -85z m300 0
l0 -85 -85 0 -85 0 0 85 0 85 85 0 85 0 0 -85z m-600 -345 l0 -80 -85 0 -85 0
0 80 0 80 85 0 85 0 0 -80z"/>
<path d="M4908 6211 c-233 -51 -412 -146 -571 -305 -296 -294 -400 -720 -275
-1124 104 -337 398 -627 738 -726 70 -21 222 -46 278 -46 l42 0 0 555 0 555
555 0 555 0 0 49 c0 26 -7 86 -15 133 -76 440 -390 781 -823 895 -134 35 -356
42 -484 14z"/>
</g>
</svg>
